# xmcd
#
# Track frame offsets: 
#        150
#        15220
#        31613
#        45241
#        63896
#        81759
#        97837
#        112571
#        129961
#        146982
#
# Disc length: 2148 seconds
#
# Revision: 2
# Processed by: cddbd v1.5.2PL0 Copyright (c) Steve Scherf et al.
# Submitted via: ExactAudioCopy v1.0b3
#
DISCID=6108620a
DTITLE=Caleb Johnson - Testify
DYEAR=2014
DGENRE=Rock
TTITLE0=Sailing Away
TTITLE1=Save Me
TTITLE2=Let Me In
TTITLE3=Only One
TTITLE4=Fighting Gravity
TTITLE5=Devil's Daughter
TTITLE6=Another Life
TTITLE7=Change
TTITLE8=Testify
TTITLE9=As Long as You Love Me
EXTD=
EXTT0=
EXTT1=
EXTT2=
EXTT3=
EXTT4=
EXTT5=
EXTT6=
EXTT7=
EXTT8=
EXTT9=
PLAYORDER=
